<mxfile host="app.diagrams.net" modified="2024-04-07T07:32:41.011Z" agent="Mozilla/5.0 (Windows NT 10.0; Win64; x64) AppleWebKit/537.36 (KHTML, like Gecko) Chrome/123.0.0.0 Safari/537.36 Edg/123.0.0.0" etag="rV4DBAK1KM0Na6_-4rIh" version="24.2.1" type="github">
  <diagram name="第 1 页" id="3Pou1KPdtFTm4FDxYntp">
    <mxGraphModel dx="2253" dy="-410" grid="1" gridSize="10" guides="1" tooltips="1" connect="1" arrows="1" fold="1" page="1" pageScale="1" pageWidth="827" pageHeight="1169" math="0" shadow="0">
      <root>
        <mxCell id="0" />
        <mxCell id="1" parent="0" />
        <mxCell id="5ZcON72gQSjXlundfntQ-9" value="" style="rounded=0;whiteSpace=wrap;html=1;dashed=1;" vertex="1" parent="1">
          <mxGeometry x="-30" y="1200" width="690" height="150" as="geometry" />
        </mxCell>
        <mxCell id="5ZcON72gQSjXlundfntQ-1" value="" style="rounded=0;whiteSpace=wrap;html=1;fillColor=#eeeeee;strokeColor=#36393d;" vertex="1" parent="1">
          <mxGeometry x="-20" y="1210" width="260" height="100" as="geometry" />
        </mxCell>
        <mxCell id="5ZcON72gQSjXlundfntQ-2" value="" style="rounded=0;whiteSpace=wrap;html=1;fillColor=#eeeeee;strokeColor=#36393d;" vertex="1" parent="1">
          <mxGeometry x="-10" y="1220" width="260" height="100" as="geometry" />
        </mxCell>
        <mxCell id="5ZcON72gQSjXlundfntQ-3" value="&lt;font size=&quot;1&quot; style=&quot;&quot;&gt;&lt;b style=&quot;font-size: 20px;&quot;&gt;服务器&lt;/b&gt;&lt;/font&gt;&lt;div&gt;&lt;span style=&quot;font-size: 16px;&quot;&gt;&lt;br&gt;&lt;/span&gt;&lt;div&gt;&lt;span style=&quot;background-color: initial; font-family: &amp;quot;Times New Roman&amp;quot;; font-size: 13px;&quot;&gt;&lt;font style=&quot;font-size: 13px;&quot;&gt;Cenots7/Ubuntu18.04/Kylin10/win7/win10&lt;/font&gt;&lt;/span&gt;&lt;div style=&quot;font-size: 13px;&quot;&gt;&lt;font style=&quot;font-size: 13px;&quot;&gt;&lt;font style=&quot;background-color: initial; font-size: 13px;&quot; face=&quot;Times New Roman&quot;&gt;Intel&lt;/font&gt;&lt;span style=&quot;background-color: initial; font-family: &amp;quot;Times New Roman&amp;quot;;&quot;&gt;&amp;nbsp;&lt;/span&gt;&lt;span style=&quot;background-color: initial; font-family: 宋体;&quot;&gt;&lt;font style=&quot;font-size: 13px;&quot; face=&quot;Times New Roman&quot;&gt;i&lt;/font&gt;&lt;/span&gt;&lt;span style=&quot;background-color: initial; font-family: &amp;quot;Times New Roman&amp;quot;;&quot;&gt;9-10900&lt;/span&gt;&lt;span style=&quot;background-color: initial; font-family: 宋体;&quot;&gt;&lt;font style=&quot;font-size: 13px;&quot; face=&quot;Times New Roman&quot;&gt;X&lt;/font&gt;&lt;/span&gt;&lt;span style=&quot;background-color: initial; font-family: &amp;quot;Times New Roman&amp;quot;;&quot;&gt;&amp;nbsp;&lt;/span&gt;&lt;span style=&quot;background-color: initial; font-family: 宋体;&quot;&gt;&lt;font style=&quot;font-size: 13px;&quot; face=&quot;Times New Roman&quot;&gt;CPU&lt;/font&gt;&lt;/span&gt;&lt;span style=&quot;background-color: initial; font-family: &amp;quot;Times New Roman&amp;quot;;&quot;&gt;&lt;font style=&quot;font-size: 13px;&quot; face=&quot;宋体&quot;&gt;、&lt;/font&gt;32&amp;nbsp;&lt;/span&gt;&lt;span style=&quot;background-color: initial; font-family: 宋体;&quot;&gt;&lt;font style=&quot;font-size: 13px;&quot; face=&quot;Times New Roman&quot;&gt;GB&lt;/font&gt;&lt;/span&gt;&lt;span style=&quot;background-color: initial; font-family: &amp;quot;Times New Roman&amp;quot;;&quot;&gt;&amp;nbsp;&lt;/span&gt;&lt;span style=&quot;background-color: initial; font-family: 宋体;&quot;&gt;&lt;font style=&quot;font-size: 13px;&quot; face=&quot;宋体&quot;&gt;内存、&lt;/font&gt;&lt;font style=&quot;font-size: 13px;&quot; face=&quot;Times New Roman&quot;&gt;1&lt;/font&gt;&lt;/span&gt;&lt;span style=&quot;background-color: initial; font-family: &amp;quot;Times New Roman&amp;quot;;&quot;&gt;TB&amp;nbsp;&lt;/span&gt;&lt;span style=&quot;background-color: initial; font-family: 宋体;&quot;&gt;&lt;font style=&quot;font-size: 13px;&quot; face=&quot;Times New Roman&quot;&gt;SSD&lt;/font&gt;&lt;/span&gt;&lt;/font&gt;&lt;/div&gt;&lt;/div&gt;&lt;/div&gt;" style="rounded=0;whiteSpace=wrap;html=1;align=left;fillColor=#eeeeee;strokeColor=#36393d;" vertex="1" parent="1">
          <mxGeometry y="1230" width="260" height="100" as="geometry" />
        </mxCell>
        <mxCell id="5ZcON72gQSjXlundfntQ-4" value="&lt;font size=&quot;1&quot; style=&quot;&quot;&gt;&lt;b style=&quot;font-size: 20px;&quot;&gt;客户端&lt;/b&gt;&lt;/font&gt;&lt;div&gt;&lt;span style=&quot;font-size: 16px;&quot;&gt;&lt;br&gt;&lt;/span&gt;&lt;div&gt;&lt;span style=&quot;background-color: initial; font-family: &amp;quot;Times New Roman&amp;quot;; font-size: 13px;&quot;&gt;&lt;font style=&quot;font-size: 13px;&quot;&gt;Cenots7/Ubuntu18.04/Kylin10/win7/win10&lt;/font&gt;&lt;/span&gt;&lt;div style=&quot;font-size: 13px;&quot;&gt;&lt;font style=&quot;font-size: 13px;&quot;&gt;&lt;font style=&quot;background-color: initial; font-size: 13px;&quot; face=&quot;Times New Roman&quot;&gt;Intel&lt;/font&gt;&lt;span style=&quot;background-color: initial; font-family: &amp;quot;Times New Roman&amp;quot;;&quot;&gt;&amp;nbsp;&lt;/span&gt;&lt;span style=&quot;background-color: initial; font-family: 宋体;&quot;&gt;&lt;font style=&quot;font-size: 13px;&quot; face=&quot;Times New Roman&quot;&gt;i&lt;/font&gt;&lt;/span&gt;&lt;span style=&quot;background-color: initial; font-family: &amp;quot;Times New Roman&amp;quot;;&quot;&gt;9-10900&lt;/span&gt;&lt;span style=&quot;background-color: initial; font-family: 宋体;&quot;&gt;&lt;font style=&quot;font-size: 13px;&quot; face=&quot;Times New Roman&quot;&gt;X&lt;/font&gt;&lt;/span&gt;&lt;span style=&quot;background-color: initial; font-family: &amp;quot;Times New Roman&amp;quot;;&quot;&gt;&amp;nbsp;&lt;/span&gt;&lt;span style=&quot;background-color: initial; font-family: 宋体;&quot;&gt;&lt;font style=&quot;font-size: 13px;&quot; face=&quot;Times New Roman&quot;&gt;CPU&lt;/font&gt;&lt;/span&gt;&lt;span style=&quot;background-color: initial; font-family: &amp;quot;Times New Roman&amp;quot;;&quot;&gt;&lt;font style=&quot;font-size: 13px;&quot; face=&quot;宋体&quot;&gt;、&lt;/font&gt;32&amp;nbsp;&lt;/span&gt;&lt;span style=&quot;background-color: initial; font-family: 宋体;&quot;&gt;&lt;font style=&quot;font-size: 13px;&quot; face=&quot;Times New Roman&quot;&gt;GB&lt;/font&gt;&lt;/span&gt;&lt;span style=&quot;background-color: initial; font-family: &amp;quot;Times New Roman&amp;quot;;&quot;&gt;&amp;nbsp;&lt;/span&gt;&lt;span style=&quot;background-color: initial; font-family: 宋体;&quot;&gt;&lt;font style=&quot;font-size: 13px;&quot; face=&quot;宋体&quot;&gt;内存、&lt;/font&gt;&lt;font style=&quot;font-size: 13px;&quot; face=&quot;Times New Roman&quot;&gt;1&lt;/font&gt;&lt;/span&gt;&lt;span style=&quot;background-color: initial; font-family: &amp;quot;Times New Roman&amp;quot;;&quot;&gt;TB&amp;nbsp;&lt;/span&gt;&lt;span style=&quot;background-color: initial; font-family: 宋体;&quot;&gt;&lt;font style=&quot;font-size: 13px;&quot; face=&quot;Times New Roman&quot;&gt;SSD&lt;/font&gt;&lt;/span&gt;&lt;/font&gt;&lt;/div&gt;&lt;/div&gt;&lt;/div&gt;" style="rounded=0;whiteSpace=wrap;html=1;align=left;fillColor=#eeeeee;strokeColor=#36393d;" vertex="1" parent="1">
          <mxGeometry x="390" y="1230" width="260" height="100" as="geometry" />
        </mxCell>
        <mxCell id="5ZcON72gQSjXlundfntQ-5" value="" style="endArrow=none;html=1;rounded=0;entryX=0;entryY=0.5;entryDx=0;entryDy=0;strokeWidth=8;" edge="1" parent="1" target="5ZcON72gQSjXlundfntQ-4">
          <mxGeometry width="50" height="50" relative="1" as="geometry">
            <mxPoint x="260" y="1280" as="sourcePoint" />
            <mxPoint x="310" y="1230" as="targetPoint" />
          </mxGeometry>
        </mxCell>
        <mxCell id="5ZcON72gQSjXlundfntQ-6" value="网络连接" style="text;html=1;align=center;verticalAlign=middle;whiteSpace=wrap;rounded=0;" vertex="1" parent="1">
          <mxGeometry x="300" y="1250" width="60" height="30" as="geometry" />
        </mxCell>
        <mxCell id="5ZcON72gQSjXlundfntQ-7" value="1000Mbps" style="text;html=1;align=center;verticalAlign=middle;whiteSpace=wrap;rounded=0;" vertex="1" parent="1">
          <mxGeometry x="300" y="1290" width="60" height="30" as="geometry" />
        </mxCell>
      </root>
    </mxGraphModel>
  </diagram>
</mxfile>
